#N canvas 766 473 450 300 10;
#X obj 121 46 ctlin;
#X floatatom 96 82 5 0 0 0 - - -, f 5;
#X floatatom 135 83 5 0 0 0 - - -, f 5;
#X floatatom 177 83 5 0 0 0 - - -, f 5;
#X obj 96 136 pack 1 2 3;
#X obj 96 158 oscformat ctrl;
#X obj 96 180 list prepend send;
#X obj 96 202 list trim;
#X obj 96 224 netsend -u -b;
#X msg 233 164 connect localhost 6010;
#X obj 55 225 print;
#X obj 216 41 hsl 128 15 0 127 0 0 empty empty empty -2 -8 0 10 -262144
-1 -1 3600 1;
#X obj 245 63 hsl 128 15 0 127 0 0 empty empty empty -2 -8 0 10 -262144
-1 -1 5250 1;
#X obj 268 84 hsl 128 15 0 127 0 0 empty empty empty -2 -8 0 10 -262144
-1 -1 7000 1;
#X connect 0 0 1 0;
#X connect 0 1 2 0;
#X connect 0 2 3 0;
#X connect 1 0 4 0;
#X connect 2 0 4 1;
#X connect 3 0 4 2;
#X connect 4 0 5 0;
#X connect 4 0 10 0;
#X connect 5 0 6 0;
#X connect 6 0 7 0;
#X connect 7 0 8 0;
#X connect 9 0 8 0;
#X connect 11 0 1 0;
#X connect 12 0 2 0;
#X connect 13 0 3 0;

